<svg xmlns="http://www.w3.org/2000/svg" class="tc-image-button" width="22pt" height="22pt" version="1.1" x="0px" y="0px" fill="#22c4a3" viewBox="0 0 1000 1000">
<path d="M247.8,203.3c14.2,0,25.6,11.5,25.6,25.6c0,14.2-11.5,25.6-25.6,25.6c-14.1,0-25.6-11.5-25.6-25.6C222.2,214.8,233.6,203.3,247.8,203.3z"></path>
<path d="M686.6,141.5c-123.9-31.4-222.9-23.5-354.1,54.8c-3-28.6-78.4-114.5-170.3-54.2c-98-12.1-98,88.9-98,88.9S10.7,325.1,10,360.6c-0.5,23.7,13.8,30.2,27.5,34.2c70.8-40.3,135-30.7,187.2-22.9c27.2,4.1,50.8,7.5,68.4,2.5c6.1-1.8,12.5,1.9,14.2,8c1.7,6.1-1.9,12.5-8,14.3c-22.4,6.3-48.2,2.5-78.1-2c-46.7-7-103.8-15.1-165,16.6c58.2,101.3,219.4,135.7,336.5,54.8c25.6,1.6,59.1,5.4,95.2,8.4c6.7,0.5,0.1,21.6-6.4,42.6c-2.3,7.3-88.7,25.4-90.4,31.8c-3.1,12.1,78.6,2.2,84.4,10.6c5.8,8.4-10.5,46.8-3,64.9c5,12,45.8-0.4,57.3-28.7c5.8-14.1-18.4-42.1-13-53.4c16.1-33.5,30.2-64.2,32.7-64.2c16.8,0.5,33.4,0.6,49.7-0.2c33.8-1.5,66.5-4.7,96.7-7.3c3.8-0.4,10.3,13.2,17.1,28.9c3.1,7.2-56.6,18.1-53.6,25.2c6.3,14.4,58.8,4.7,78.3,22.7c19.6,18.1,20.2,66.8,34.7,72.4c8,3.1,41.3-20.9,34.7-51.2c-9.7-44.3-63.1-101.4-60.3-101.6c37-1.7,67.8,0.1,88.9,11c78.4,40.6,21.1,342.2-174.8,357.3c-106.7,8.2-142.4-77.2-129.1-124.8c13.1-47.1,71.8-72.7,112.6-66.6c40.6,6,48.2,43.7,30.1,69.2c-2.4,3.4-5.1,6.5-8.1,9.4c-7-7.1-16.7-11.5-27.4-11.5c-21.3,0-38.5,17.2-38.5,38.5c0,21.3,17.2,38.4,38.5,38.4c19.2,0,35-14.1,37.9-32.6c10.3-2.6,20.6-7.6,29.3-16.6c34.6-36.2,27.1-101-38.5-123.2c-73.4-24.8-176.4,21.3-179.4,99.7c-3,78.3,68.9,170.3,192.7,163.2C864.9,867.9,997.1,677,989.7,500.8C983.3,351.5,903.6,196.3,686.6,141.5z M224.4,310.9c-41.2,0-74.6-33.4-74.6-74.6c0-41.2,33.4-74.6,74.6-74.6c41.2,0,74.6,33.4,74.6,74.6C299,277.5,265.6,310.9,224.4,310.9z"></path>
</svg>
