<svg xmlns="http://www.w3.org/2000/svg" version="1.0" width="1em" height="auto" viewBox="0 0 300.000000 300.000000" fill="#b37aff" preserveAspectRatio="xMidYMid meet">
<g transform="translate(0.000000,300.000000) scale(0.100000,-0.100000)" stroke="none">
<path d="M1375 2945 c-146 -59 -215 -209 -169 -365 22 -75 109 -162 184 -184
111 -33 208 -12 291 61 70 63 99 127 99 216 0 89 -32 159 -101 221 -86 77
-195 96 -304 51z"></path>
<path d="M569 2625 c-62 -20 -146 -96 -175 -160 -34 -73 -34 -186 1 -260 89
-187 333 -229 482 -83 61 59 87 126 88 218 0 59 -5 85 -23 122 -30 60 -90 121
-149 149 -58 28 -161 34 -224 14z"></path>
<path d="M2175 2606 c-61 -29 -117 -84 -147 -145 -18 -36 -23 -63 -23 -126 1
-69 4 -87 30 -134 59 -107 151 -161 275 -161 117 0 223 70 274 179 31 69 28
179 -6 246 -33 62 -89 118 -148 144 -67 30 -188 29 -255 -3z"></path>
<path d="M1341 2054 c-185 -50 -339 -203 -395 -393 -20 -69 -21 -209 -1 -285
63 -241 290 -416 540 -416 259 0 499 196 544 444 54 295 -122 577 -405 651
-72 19 -211 18 -283 -1z"></path>
<path d="M222 1802 c-64 -23 -142 -96 -174 -162 -32 -64 -31 -176 1 -247 50
-111 178 -190 294 -180 118 10 228 94 263 199 22 67 16 187 -13 243 -28 53
-86 110 -141 136 -62 31 -162 35 -230 11z"></path>
<path d="M2553 1806 c-132 -43 -225 -185 -210 -317 13 -107 72 -190 169 -239
148 -74 324 -15 397 132 27 52 31 72 31 137 0 124 -59 220 -167 272 -56 27
-161 34 -220 15z"></path>
<path d="M595 981 c-94 -25 -182 -105 -211 -193 -35 -105 1 -249 79 -314 82
-69 206 -93 305 -60 163 54 245 253 169 408 -49 99 -135 157 -245 163 -37 2
-80 1 -97 -4z"></path>
<path d="M2174 956 c-135 -63 -201 -207 -159 -351 22 -75 105 -163 179 -188
163 -56 337 23 395 177 39 105 20 201 -56 287 -66 73 -126 99 -228 99 -63 0
-91 -5 -131 -24z"></path>
<path d="M1365 636 c-113 -53 -175 -151 -175 -276 0 -123 59 -218 169 -272 67
-33 187 -33 255 1 63 31 116 84 147 147 19 39 24 65 24 124 -1 125 -56 214
-167 270 -80 40 -177 42 -253 6z"></path>
</g>
</svg>
